# xmcd
#
# Track frame offsets: 
#        150
#        15441
#        33226
#        54091
#        69133
#        88550
#        107136
#        129564
#        146125
#        162051
#
# Disc length: 2359 seconds
#
# Revision: 0
# Processed by: cddbd v1.5.2PL0 Copyright (c) Steve Scherf et al.
# Submitted via: ExactAudioCopy v1.3
#
DISCID=7309350a
DTITLE=Kelly's Lot - The Light
DYEAR=2008
DGENRE=Blues Rock
TTITLE0=Drive
TTITLE1=Strong Girl 2
TTITLE2=Unsecure
TTITLE3=Green Toads
TTITLE4=Redbone
TTITLE5=The Light
TTITLE6=Tired
TTITLE7=Nobody Here But Me
TTITLE8=Fair
TTITLE9=Say Yes To Life
EXTD=
EXTT0=
EXTT1=
EXTT2=
EXTT3=
EXTT4=
EXTT5=
EXTT6=
EXTT7=
EXTT8=
EXTT9=
PLAYORDER=
